<svg viewBox="0 0 24 24" fill="none" xmlns="http://www.w3.org/2000/svg">
  <!-- Basket outline icon matching mdi:basket-outline -->
  <path d="M5.5,21C5.72,21.22 6,21.35 6.3,21.35C6.6,21.35 6.88,21.22 7.1,21L12,16.1L16.9,21C17.12,21.22 17.4,21.35 17.7,21.35C18,21.35 18.28,21.22 18.5,21C19.19,20.31 19.19,19.19 18.5,18.5L13.41,13.41C14.5,12.59 15.23,11.31 15.23,9.88C15.23,7.18 13.05,5 10.35,5C7.65,5 5.47,7.18 5.47,9.88C5.47,11.31 6.2,12.59 7.29,13.41L2.2,18.5C1.51,19.19 1.51,20.31 2.2,21C2.42,21.22 2.7,21.35 3,21.35C3.3,21.35 3.58,21.22 3.8,21L8.89,15.91L8.9,15.9C9.67,16.19 10.5,16.35 11.35,16.35L5.5,21M7.47,9.88C7.47,8.29 8.76,7 10.35,7C11.94,7 13.23,8.29 13.23,9.88C13.23,11.47 11.94,12.76 10.35,12.76C8.76,12.76 7.47,11.47 7.47,9.88M19,17H22V19H19V22H17V19H14V17H17V14H19V17Z" fill="#166534"/>
  
  <!-- Simplified basket design -->
  <path d="M5.5,21L12,14.5L18.5,21M10,6A3,3 0 0,1 7,9A3,3 0 0,1 4,6H10M14,6A3,3 0 0,0 17,9A3,3 0 0,0 20,6H14Z" stroke="#166534" stroke-width="1.5" fill="none"/>
  <path d="M4,6L6,18H18L20,6" stroke="#166534" stroke-width="1.5" fill="none"/>
  <circle cx="8" cy="20" r="1.5" fill="#166534"/>
  <circle cx="16" cy="20" r="1.5" fill="#166534"/>
</svg>
